<?xml version="1.0" standalone="no"?>
<!DOCTYPE svg PUBLIC "-//W3C//DTD SVG 20010904//EN"
 "http://www.w3.org/TR/2001/REC-SVG-20010904/DTD/svg10.dtd">
<svg version="1.0" xmlns="http://www.w3.org/2000/svg"
 width="225.000000pt" height="225.000000pt" viewBox="0 0 225.000000 225.000000"
 preserveAspectRatio="xMidYMid meet">
<metadata>
Created by potrace 1.14, written by Peter Selinger 2001-2017
</metadata>
<g transform="translate(0.000000,225.000000) scale(0.100000,-0.100000)"
fill="#000000" stroke="none">
<path d="M445 2090 c-63 -32 -83 -70 -88 -172 l-5 -88 667 0 666 0 73 74 c45
46 85 77 103 81 16 4 29 9 29 11 0 15 -22 44 -30 39 -6 -3 -8 0 -5 7 3 7 -11
24 -32 38 l-37 25 -650 3 c-634 2 -652 2 -691 -18z"/>
<path d="M2005 1947 c18 -14 14 -37 -8 -37 -19 0 -97 -85 -97 -105 0 -14 -3
-15 -15 -5 -9 7 -18 10 -21 7 -10 -10 18 -50 74 -110 l55 -57 30 27 c85 81 90
210 11 272 -15 12 -31 21 -37 21 -6 0 -3 -6 8 -13z"/>
<path d="M1355 1150 l-459 -460 34 -34 35 -35 42 41 c23 22 40 46 39 52 -2 6
-1 7 2 3 6 -12 81 63 78 77 -2 6 -1 7 2 2 6 -11 401 384 398 398 -2 6 -1 7 2
3 6 -12 81 63 78 77 -2 6 -1 7 2 2 2 -4 40 27 83 70 43 43 76 81 73 86 -3 5
-1 7 3 6 16 -5 84 62 77 75 -4 6 -3 9 1 4 5 -4 17 1 27 10 18 16 17 18 -14 50
-17 18 -34 33 -38 33 -3 0 -212 -207 -465 -460z"/>
<path d="M682 633 c-5 -32 -9 -59 -7 -61 6 -6 115 10 115 17 0 4 -22 28 -49
55 l-49 48 -10 -59z"/>
<path d="M360 247 c0 -27 36 -71 73 -88 40 -18 75 -19 692 -19 617 0 652 1
692 19 38 18 83 74 70 88 -3 2 -11 -5 -17 -17 -6 -12 -30 -30 -53 -41 -40 -18
-76 -19 -690 -19 -707 0 -696 -1 -744 58 -13 15 -23 23 -23 19z"/>
</g>
</svg>
